<?xml version="1.0" standalone="no"?>
<!DOCTYPE svg PUBLIC "-//W3C//DTD SVG 20010904//EN"
 "http://www.w3.org/TR/2001/REC-SVG-20010904/DTD/svg10.dtd">
<svg version="1.0" xmlns="http://www.w3.org/2000/svg"
 width="512.000000pt" height="512.000000pt" viewBox="0 0 512.000000 512.000000"
 preserveAspectRatio="xMidYMid meet">
<metadata>
Created by potrace 1.14, written by Peter Selinger 2001-2017
</metadata>
<g transform="translate(0.000000,512.000000) scale(0.100000,-0.100000)"
fill="#000000" stroke="none">
<path d="M677 3186 c-1 -545 -5 -998 -8 -1006 -4 -8 -10 -34 -14 -57 -4 -24
-11 -43 -16 -43 -5 0 -6 -7 -2 -16 3 -9 2 -19 -3 -23 -9 -6 -37 -63 -35 -69 2
-4 -23 -33 -64 -74 -58 -58 -70 -68 -83 -68 -7 0 -12 -5 -12 -10 0 -6 -3 -9
-7 -8 -5 1 -21 -4 -38 -12 -79 -34 -94 -40 -105 -40 -6 0 -8 -5 -5 -11 4 -6 1
-9 -6 -8 -21 3 -66 -11 -115 -37 -24 -13 -44 -21 -44 -19 0 3 -9 -4 -20 -15
-11 -11 -24 -20 -28 -20 -5 0 -17 -18 -28 -40 -10 -22 -22 -40 -26 -40 -4 0
-5 -9 -3 -20 2 -11 0 -22 -6 -25 -5 -4 -9 -122 -9 -286 l0 -279 124 0 c69 0
127 4 130 8 3 4 34 7 71 7 36 -1 68 2 71 7 3 4 23 8 44 8 21 0 41 4 44 9 4 5
20 7 36 5 17 -3 30 -1 30 4 0 5 16 9 35 10 19 1 50 8 70 16 20 9 39 15 43 14
4 0 23 5 42 13 19 7 38 12 43 11 4 -1 7 2 7 8 0 5 18 13 40 16 22 4 38 9 36
13 -3 4 10 13 27 21 18 7 34 16 37 19 8 9 42 30 68 41 12 5 22 14 22 20 0 6 4
9 8 6 5 -3 44 31 87 74 42 44 82 80 87 80 5 0 7 4 4 9 -3 5 6 20 19 35 14 15
28 38 31 51 3 14 10 25 15 25 10 0 34 49 31 63 -1 4 3 7 8 7 6 0 10 6 9 13 -2
19 12 57 22 57 5 0 8 3 7 8 -1 4 4 23 11 42 8 19 14 42 15 50 1 8 4 20 8 25 3
6 9 34 13 63 4 28 11 52 15 52 4 0 11 43 15 95 4 52 11 95 14 95 4 0 7 476 7
1058 l-1 1057 -382 1 -383 1 -3 -991z"/>
<path d="M1660 3678 c0 -274 -1 -770 -1 -1103 0 -333 1 -832 1 -1110 l0 -505
382 2 383 3 1 515 c1 283 2 520 3 525 0 7 32 10 84 8 100 -4 147 -11 167 -28
8 -7 24 -15 35 -19 24 -7 95 -71 112 -100 6 -12 24 -46 40 -76 15 -30 32 -58
37 -61 5 -4 5 -12 2 -18 -4 -6 -2 -11 3 -11 6 0 11 -7 11 -15 0 -8 5 -15 11
-15 6 0 9 -7 5 -15 -3 -8 -1 -15 4 -15 6 0 10 -6 10 -14 0 -8 7 -21 15 -30 9
-8 14 -19 13 -23 -3 -12 25 -83 33 -83 4 0 10 -16 13 -35 4 -19 11 -35 16 -35
6 0 10 -4 10 -9 0 -5 5 -22 11 -38 6 -15 10 -30 9 -32 -1 -2 2 -7 7 -10 10 -7
65 -117 63 -126 -1 -4 7 -14 17 -23 10 -9 24 -29 32 -45 19 -36 110 -127 127
-127 8 0 14 -3 14 -7 0 -11 51 -33 61 -27 5 3 9 0 9 -5 0 -8 112 -11 355 -11
195 0 355 4 355 9 0 4 -20 47 -44 95 -24 47 -41 86 -38 86 4 0 2 4 -3 8 -11 7
-48 75 -101 182 -15 30 -31 58 -37 61 -5 3 -9 9 -9 12 0 20 -12 47 -21 47 -6
0 -8 3 -4 6 6 6 -51 115 -66 125 -5 3 -8 8 -8 10 2 9 -24 69 -30 69 -4 0 -10
13 -14 30 -4 16 -10 30 -15 30 -5 0 -11 13 -15 30 -4 16 -11 30 -16 30 -6 0
-8 4 -5 8 3 5 -3 18 -14 29 -10 12 -16 24 -12 27 3 4 2 10 -4 14 -14 9 -75
122 -66 122 4 0 2 4 -3 8 -11 8 -66 118 -64 128 0 4 -6 11 -15 16 -9 5 -16 18
-16 29 0 11 -4 17 -10 14 -5 -3 -10 -3 -10 2 1 9 67 53 80 53 4 0 10 7 14 15
3 8 10 15 16 15 13 0 77 46 105 76 11 12 28 24 38 27 9 4 17 13 17 21 0 8 12
25 28 38 15 13 38 40 52 61 14 20 29 37 34 37 4 0 6 7 2 15 -3 8 -1 15 4 15 5
0 12 11 16 25 3 14 10 25 15 25 5 0 9 6 9 13 0 7 8 28 18 47 19 36 37 89 34
103 -1 4 2 7 7 7 4 0 11 17 14 38 3 20 9 48 12 62 4 14 8 43 9 65 2 22 6 47
10 56 7 17 2 255 -7 349 -7 64 -29 160 -40 178 -5 6 -5 17 -2 22 3 6 2 10 -3
10 -8 0 -18 19 -27 55 -8 34 -19 55 -27 55 -5 0 -7 4 -4 9 3 5 -1 14 -9 21 -8
7 -15 19 -15 26 0 8 -5 14 -11 14 -5 0 -8 4 -4 9 3 5 -5 18 -18 28 -13 10 -26
23 -28 30 -11 31 -160 168 -182 168 -5 0 -15 8 -22 19 -8 10 -18 15 -24 11 -6
-3 -11 -2 -11 3 0 5 -24 19 -52 33 -29 13 -54 27 -56 31 -2 4 -19 10 -38 14
-19 3 -34 10 -34 15 0 5 -11 7 -25 5 -14 -3 -23 -1 -20 4 3 4 -12 11 -33 14
-45 7 -62 11 -82 19 -27 10 -84 18 -132 18 -27 0 -48 4 -48 8 0 5 -313 8 -695
8 l-695 0 0 -499z m1160 -206 c0 -5 25 -8 55 -7 30 1 55 -1 55 -5 0 -4 23 -10
50 -14 28 -4 50 -11 50 -16 0 -4 14 -12 31 -15 38 -9 163 -129 158 -152 -1 -4
1 -17 5 -28 4 -11 11 -29 15 -40 14 -39 -3 -245 -21 -245 -5 0 -6 -5 -3 -10 3
-6 -1 -17 -9 -26 -9 -8 -16 -21 -16 -28 0 -7 -11 -23 -25 -36 -13 -12 -22 -27
-19 -31 3 -5 -1 -9 -9 -9 -8 0 -22 -9 -32 -20 -10 -11 -24 -20 -32 -20 -7 0
-13 -4 -13 -8 0 -7 -52 -30 -75 -33 -5 0 -14 -4 -20 -9 -13 -10 -61 -20 -107
-22 -21 -1 -38 -4 -38 -8 0 -4 -89 -7 -197 -6 l-198 1 0 398 -1 397 198 0
c109 0 198 -4 198 -8z"/>
<path d="M4326 4171 c-2 -3 -5 -366 -6 -806 -2 -440 -5 -1161 -7 -1603 l-3
-802 388 0 389 0 0 1609 0 1608 -379 0 c-208 0 -380 -3 -382 -6z"/>
</g>
</svg>
